HIERARCHY
ROOT Hips
{
	OFFSET -0.001795 -0.223333 0.028219
	CHANNELS 6 Xposition Yposition Zposition Zrotation Yrotation Xrotation 
	JOINT LeftUpLeg
	{
		OFFSET 0.069520 -0.091406 -0.006815
		CHANNELS 3 Zrotation Yrotation Xrotation
		JOINT LeftLeg
		{
			OFFSET 0.034277 -0.375199 -0.004496
			CHANNELS 3 Zrotation Yrotation Xrotation
			JOINT LeftFoot
			{
				OFFSET -0.013596 -0.397961 -0.043693
				CHANNELS 3 Zrotation Yrotation Xrotation
				JOINT LeftToe
				{
					OFFSET 0.026358 -0.055791 0.119288
					CHANNELS 3 Zrotation Yrotation Xrotation
					End Site
					{
						OFFSET 0.000000 0.000000 0.000000
					}
				}
			}
		}
	}
	JOINT RightUpLeg
	{
		OFFSET -0.067670 -0.090522 -0.004320
		CHANNELS 3 Zrotation Yrotation Xrotation
		JOINT RightLeg
		{
			OFFSET -0.038290 -0.382569 -0.008850
			CHANNELS 3 Zrotation Yrotation Xrotation
			JOINT RightFoot
			{
				OFFSET 0.015774 -0.398415 -0.042312
				CHANNELS 3 Zrotation Yrotation Xrotation
				JOINT RightToe
				{
					OFFSET -0.025372 -0.048144 0.123348
					CHANNELS 3 Zrotation Yrotation Xrotation
					End Site
					{
						OFFSET 0.000000 0.000000 0.000000
					}
				}
			}
		}
	}
	JOINT Spine
	{
		OFFSET -0.002533 0.108963 -0.026696
		CHANNELS 3 Zrotation Yrotation Xrotation
		JOINT Spine1
		{
			OFFSET 0.005487 0.135180 0.001092
			CHANNELS 3 Zrotation Yrotation Xrotation
			JOINT Spine2
			{
				OFFSET 0.001457 0.052922 0.025425
				CHANNELS 3 Zrotation Yrotation Xrotation
				JOINT Neck
				{
					OFFSET -0.002778 0.213870 -0.042857
					CHANNELS 3 Zrotation Yrotation Xrotation
					JOINT Head
					{
						OFFSET 0.005152 0.064970 0.051349
						CHANNELS 3 Zrotation Yrotation Xrotation
						End Site
						{
							OFFSET 0.000000 0.000000 0.000000
						}
					}
				}
				JOINT LeftShoulder
				{
					OFFSET 0.078845 0.121749 -0.034090
					CHANNELS 3 Zrotation Yrotation Xrotation
					JOINT LeftArm
					{
						OFFSET 0.090977 0.030469 -0.008868
						CHANNELS 3 Zrotation Yrotation Xrotation
						JOINT LeftForeArm
						{
							OFFSET 0.259612 -0.012772 -0.027456
							CHANNELS 3 Zrotation Yrotation Xrotation
							JOINT LeftHand
							{
								OFFSET 0.249234 0.008986 -0.001171
								CHANNELS 3 Zrotation Yrotation Xrotation
								End Site
								{
									OFFSET 0.000000 0.000000 0.000000
								}
							}
						}
					}
				}
				JOINT RightShoulder
				{
					OFFSET -0.081759 0.118833 -0.038615
					CHANNELS 3 Zrotation Yrotation Xrotation
					JOINT RightArm
					{
						OFFSET -0.096012 0.032551 -0.009143
						CHANNELS 3 Zrotation Yrotation Xrotation
						JOINT RightForeArm
						{
							OFFSET -0.253742 -0.013329 -0.021401
							CHANNELS 3 Zrotation Yrotation Xrotation
							JOINT RightHand
							{
								OFFSET -0.255298 0.007772 -0.005559
								CHANNELS 3 Zrotation Yrotation Xrotation
								End Site
								{
									OFFSET 0.000000 0.000000 0.000000
								}
							}
						}
					}
				}
			}
		}
	}
}
MOTION
Frames: 18
Frame Time: 0.050000
0.000000 0.952719 0.000000 -1.131284 -2.609750 -0.900197 -0.261794 0.554598 5.695843 0.740148 0.001197 -2.144998 0.210220 3.621583 8.536464 0.000000 0.000000 0.000000 -0.165289 0.374101 -3.777045 -0.274501 0.303705 6.141374 3.366058 2.554678 9.290252 0.000000 0.000000 0.000000 4.454851 -0.260907 3.014582 -1.949510 0.951019 2.925147 -2.393919 1.724316 2.662703 5.048551 -2.310052 -12.001952 0.000000 0.000000 0.000000 -28.655748 -2.620661 -1.703922 -47.600649 0.873963 -5.689387 -8.083436 -22.548554 2.392510 0.000000 0.000000 0.000000 25.539847 -1.430313 -3.114801 49.252740 -1.695901 -5.329990 14.233292 31.434382 4.877972 0.000000 0.000000 0.000000 
-0.006941 0.950768 0.009254 -1.123860 -2.456823 -0.219234 0.281661 0.543880 5.924306 0.566604 0.042575 -2.766478 0.197247 3.482721 8.148469 0.000000 0.000000 0.000000 0.500155 0.406370 -4.041413 0.343173 0.198802 5.956857 1.764791 -0.583077 8.949340 0.000000 0.000000 0.000000 4.995930 -0.181178 1.741308 -2.150644 1.065610 5.077599 -2.791104 1.346099 1.431708 4.808597 -1.872423 -14.023639 0.000000 0.000000 0.000000 -28.336430 -2.218355 -1.925143 -48.608732 0.515088 -5.586213 -6.832196 -22.643665 2.149585 0.000000 0.000000 0.000000 25.258301 -1.524898 -3.234111 50.395129 -1.404887 -5.208765 13.823039 32.137582 4.855243 0.000000 0.000000 0.000000 
-0.014844 0.949440 0.018610 -0.449755 -2.597156 -0.009812 -0.136023 0.525410 5.460253 0.827751 -0.043090 -1.268702 0.400874 3.722126 7.813291 0.000000 0.000000 0.000000 1.052117 0.437366 -4.292526 -0.522174 0.349839 6.294178 0.836492 -2.589605 9.102583 0.000000 0.000000 0.000000 5.213120 -0.237554 2.305922 -2.632973 1.292995 2.370459 -2.521795 1.138601 3.481766 3.704671 -1.295199 -13.801333 0.000000 0.000000 0.000000 -28.184879 -2.334213 -1.561540 -48.613661 -0.268088 -5.523052 -6.797731 -21.779097 2.099031 0.000000 0.000000 0.000000 25.954888 -1.364471 -3.301268 50.313856 -1.021280 -5.203528 13.048570 32.382506 4.685514 0.000000 0.000000 0.000000 
-0.023882 0.948177 0.028462 -0.222646 -2.913646 0.313012 -0.114981 0.538871 5.583267 1.264239 -0.105781 -0.887221 0.628433 4.068278 7.701754 0.000000 0.000000 0.000000 1.743820 0.493328 -4.735574 -1.178996 0.529455 7.624512 0.678902 -2.480741 8.020256 0.000000 0.000000 0.000000 5.790105 -0.245994 2.178723 -3.027587 1.507919 3.026237 -2.539483 0.561574 2.870489 3.272546 -1.069008 -13.856158 0.000000 0.000000 0.000000 -28.463364 -2.041671 -1.534154 -48.638995 -0.149976 -5.584537 -6.837857 -22.108297 2.161379 0.000000 0.000000 0.000000 25.585317 -1.121351 -3.372571 50.855964 -0.769837 -5.032903 12.527153 33.298311 4.607738 0.000000 0.000000 0.000000 
-0.033629 0.947313 0.038958 -0.069047 -3.262728 0.174870 0.046951 0.492288 5.170713 1.632296 -0.254420 1.412867 0.953381 4.569085 7.511028 0.000000 0.000000 0.000000 2.374450 0.424365 -4.106695 -1.540423 0.617116 8.025781 0.650016 -2.200180 7.182953 0.000000 0.000000 0.000000 6.138959 -0.352003 3.254098 -2.831083 1.408183 2.832073 -2.749859 0.817359 2.298205 2.946128 -0.889360 -13.397929 0.000000 0.000000 0.000000 -27.817611 -2.964687 -0.966120 -48.583923 -0.271090 -5.467185 -7.495771 -22.210392 2.286486 0.000000 0.000000 0.000000 25.256915 -1.334714 -3.430530 51.865883 -0.164217 -4.853148 12.242942 34.087461 4.651420 0.000000 0.000000 0.000000 
-0.043565 0.946554 0.050357 0.028595 -2.835353 0.286735 0.668764 0.293613 3.370443 1.438703 -0.420642 5.791267 1.034464 4.577588 6.939933 0.000000 0.000000 0.000000 2.463593 0.350641 -3.483148 -0.723457 0.479061 8.139270 0.399701 -2.438968 6.625931 0.000000 0.000000 0.000000 6.150441 -0.375129 3.464219 -2.354817 1.168412 3.718481 -2.813310 0.083475 1.285683 2.149485 -0.432127 -13.193633 0.000000 0.000000 0.000000 -26.556422 -1.778629 -1.489976 -49.006525 -0.344384 -5.430932 -7.986617 -22.333314 2.403211 0.000000 0.000000 0.000000 23.937796 -1.024540 -3.253522 53.590515 0.213926 -4.728789 10.543294 34.295088 4.112372 0.000000 0.000000 0.000000 
-0.053091 0.947095 0.062445 -0.035905 -3.644700 0.896949 1.595912 -0.025828 -0.176698 0.478135 -0.448044 12.147990 1.546973 5.874136 8.501315 0.000000 0.000000 0.000000 2.934372 0.381687 -3.790517 -0.535249 0.491209 8.854843 0.733668 -1.776273 6.596015 0.000000 0.000000 0.000000 6.988399 -0.425655 3.554456 -2.144156 1.048709 1.879964 -3.290270 0.930414 2.637674 1.570391 0.020164 -13.946467 0.000000 0.000000 0.000000 -26.052479 -0.306193 -2.448182 -48.659718 0.822186 -5.917869 -8.968066 -24.604425 2.871356 0.000000 0.000000 0.000000 22.493533 -1.097551 -2.917009 54.905166 0.760174 -4.785772 10.632864 34.071894 4.194453 0.000000 0.000000 0.000000 
-0.061615 0.946804 0.075707 0.274347 -3.829541 -0.226303 1.581806 -0.269967 -3.348525 -0.342910 -0.415322 21.498007 2.673252 7.856142 8.515092 0.000000 0.000000 0.000000 3.317674 0.104489 -1.560673 -0.976189 0.559434 8.641791 0.764323 -1.492904 6.116143 0.000000 0.000000 0.000000 7.004198 -0.600342 5.582486 -2.856231 1.383821 0.422274 -2.203766 2.076158 4.106358 1.880536 -0.019066 -15.073806 0.000000 0.000000 0.000000 -25.174604 -1.683746 -1.701482 -49.200431 0.818410 -6.073180 -9.369658 -26.181650 3.138431 0.000000 0.000000 0.000000 21.707058 -2.191095 -3.178853 55.010871 0.076116 -5.308756 12.907092 36.633106 5.409989 0.000000 0.000000 0.000000 
-0.069430 0.946305 0.090144 0.096424 -4.093885 -0.550747 1.246207 -0.520452 -6.437541 -0.234554 -0.504216 28.008755 3.355548 9.182785 9.272011 0.000000 0.000000 0.000000 4.259304 -0.191188 0.557609 -1.635827 0.588607 7.235010 0.920141 -1.085501 5.939068 0.000000 0.000000 0.000000 7.226447 -0.725489 6.808117 -2.573718 1.234072 -0.434657 -2.647490 3.158971 4.729339 3.559821 -1.074732 -14.096980 0.000000 0.000000 0.000000 -24.630858 -0.760086 -2.506102 -49.522999 0.888933 -6.123630 -9.375694 -27.392202 3.237755 0.000000 0.000000 0.000000 22.065884 -2.327149 -2.983534 55.428657 0.053481 -5.489322 10.718558 36.875879 4.895183 0.000000 0.000000 0.000000 
-0.076874 0.944631 0.105316 0.347145 -4.626889 -0.105938 -0.455343 -0.945958 -10.156814 1.135673 -1.030996 32.095931 3.679531 9.569725 8.588911 0.000000 0.000000 0.000000 3.904882 -0.288914 1.341993 -0.904228 0.461455 7.051100 1.006966 -0.312131 4.757249 0.000000 0.000000 0.000000 6.839488 -0.693982 6.662557 -2.414501 1.188309 1.513517 -2.819591 4.215428 3.088773 3.200337 -0.909455 -12.649428 0.000000 0.000000 0.000000 -23.563656 -0.860659 -2.651506 -50.302857 1.759804 -6.373715 -9.040811 -28.457618 3.196299 0.000000 0.000000 0.000000 22.562131 -2.395287 -2.877038 54.946845 -1.217846 -5.891656 10.305000 38.495833 5.062585 0.000000 0.000000 0.000000 
-0.083743 0.943464 0.122216 -0.297338 -6.409789 0.615605 0.022687 -1.266813 -14.957441 0.889060 -0.694613 37.719696 3.778714 9.347331 6.971397 0.000000 0.000000 0.000000 5.135763 -0.432017 1.906476 -1.850049 0.637982 7.314050 1.618958 1.742785 3.462159 0.000000 0.000000 0.000000 7.837261 -0.744716 6.503355 -3.391313 1.715135 2.286617 -2.296941 5.977688 2.415072 2.995652 -0.511779 -14.257045 0.000000 0.000000 0.000000 -23.751498 0.154430 -3.544336 -49.587440 3.065846 -6.660929 -10.285072 -30.055866 3.633332 0.000000 0.000000 0.000000 21.566614 -3.128929 -2.992350 54.561127 -2.238749 -6.252325 13.372021 39.764083 6.428911 0.000000 0.000000 0.000000 
-0.089695 0.941560 0.142456 -0.437000 -6.345103 0.138319 0.458396 -1.478152 -18.831076 0.426350 -0.481365 40.912652 3.726677 9.045559 5.851331 0.000000 0.000000 0.000000 5.095984 -0.679725 3.790737 -1.575265 0.622322 7.752738 2.056872 3.347667 2.606791 0.000000 0.000000 0.000000 7.297311 -0.860492 8.148675 -2.696001 1.340279 1.551910 -1.815377 7.190367 2.543056 3.374615 -0.535953 -15.137237 0.000000 0.000000 0.000000 -24.804558 0.237346 -4.120528 -49.055069 5.347619 -7.377097 -11.405144 -30.541885 3.914091 0.000000 0.000000 0.000000 21.251188 -4.221284 -3.296170 53.125143 -2.563554 -6.266713 16.449261 41.683498 8.112463 0.000000 0.000000 0.000000 
-0.095119 0.938938 0.166689 -0.043224 -6.744463 -0.113819 -0.101844 -1.856552 -23.199720 -0.772348 0.171794 40.386157 3.131390 7.562805 4.209304 0.000000 0.000000 0.000000 5.244853 -1.006838 6.199247 -2.352154 0.740019 7.592647 1.592580 3.527489 0.689108 0.000000 0.000000 0.000000 7.001433 -0.949421 9.471787 -2.860445 1.382780 0.086923 -1.474583 8.089913 3.445017 3.467768 -0.555125 -15.037743 0.000000 0.000000 0.000000 -25.570088 2.577025 -5.787645 -47.253769 8.307079 -8.188908 -14.991821 -32.487480 5.177767 0.000000 0.000000 0.000000 19.862650 -4.078796 -2.920274 53.489106 -3.379394 -6.727482 17.025267 44.075939 9.037874 0.000000 0.000000 0.000000 
-0.100639 0.935926 0.194777 0.356891 -8.128708 -0.564542 -0.380193 -2.006895 -25.843606 -2.480922 0.984000 34.128969 2.913866 7.119644 4.535952 0.000000 0.000000 0.000000 4.757354 -1.231523 8.476294 -3.110775 0.886920 7.809968 2.276396 5.689838 0.070242 0.000000 0.000000 0.000000 6.231713 -0.945947 10.519202 -2.896785 1.422924 0.685813 -1.473722 10.116344 2.881326 3.448337 -0.409216 -15.012789 0.000000 0.000000 0.000000 -25.527722 2.287025 -6.069727 -47.693051 11.749583 -9.458912 -15.536353 -33.722174 5.407627 0.000000 0.000000 0.000000 20.444221 -4.362134 -2.808587 52.382373 -4.174450 -6.943466 20.719707 47.588748 11.784585 0.000000 0.000000 0.000000 
-0.106509 0.930846 0.226893 0.379992 -9.797224 -0.728304 -0.477395 -2.022527 -27.812328 -2.778254 0.760432 22.583464 3.204148 9.260476 15.735142 0.000000 0.000000 0.000000 4.666259 -1.473000 10.905027 -3.719197 0.962907 7.506257 2.556991 6.613177 -0.238640 0.000000 0.000000 0.000000 6.187228 -0.997454 11.589751 -3.804730 1.878036 0.657805 -1.097863 11.288989 2.665888 2.844885 -0.033895 -14.812890 0.000000 0.000000 0.000000 -25.332918 3.362491 -6.731999 -47.677665 14.678456 -10.571830 -16.776990 -35.033690 5.987114 0.000000 0.000000 0.000000 20.150705 -4.527381 -2.825129 52.112725 -4.523389 -7.031960 24.701716 51.798552 15.129888 0.000000 0.000000 0.000000 
-0.112659 0.923572 0.262983 0.107867 -10.844337 -0.705651 -0.801014 -2.072791 -28.894577 -1.318414 0.122437 11.946005 1.871547 8.442887 24.214298 0.000000 0.000000 0.000000 4.900319 -1.720377 13.149159 -3.986121 1.040215 7.856888 2.331638 6.305990 -0.604227 0.000000 0.000000 0.000000 5.729981 -0.970066 12.034961 -4.135806 2.059305 0.871809 -1.036527 12.304187 2.726795 3.550847 -0.361802 -15.238610 0.000000 0.000000 0.000000 -24.787518 3.704263 -6.944693 -48.850023 16.628383 -11.674746 -16.698273 -37.561049 6.353700 0.000000 0.000000 0.000000 20.546574 -4.291965 -2.596408 51.413052 -3.564684 -6.590923 31.571331 56.130148 20.689145 0.000000 0.000000 0.000000 
-0.118832 0.913269 0.303180 0.190420 -11.893208 -0.647219 -1.214707 -2.155468 -30.497287 -0.727401 -0.004777 8.971252 0.079249 6.095202 24.840359 0.000000 0.000000 0.000000 4.060848 -1.787030 15.617996 -3.803148 1.030476 8.065782 2.711059 7.546021 -0.955379 0.000000 0.000000 0.000000 4.672547 -0.866559 12.371399 -4.672526 2.365721 1.348730 -1.066981 13.173053 3.272930 4.312639 -0.670163 -16.101631 0.000000 0.000000 0.000000 -24.080648 4.304819 -7.184762 -49.336978 16.992495 -12.036545 -17.059862 -40.303815 6.937913 0.000000 0.000000 0.000000 20.260868 -3.380714 -1.948935 52.022452 -2.176135 -6.161092 38.977700 60.343916 27.487160 0.000000 0.000000 0.000000 
-0.124756 0.902543 0.346997 0.357141 -12.412896 -0.037660 -1.576051 -2.280568 -32.965273 -0.648867 -0.003887 12.751089 -0.193733 5.144589 22.044138 0.000000 0.000000 0.000000 3.589601 -1.835222 17.459251 -4.072591 1.192016 9.216266 2.644564 7.747648 -1.400877 0.000000 0.000000 0.000000 3.473783 -0.802532 13.969523 -5.631421 2.734824 -0.123547 -0.738432 14.507390 4.427005 5.966191 -1.305639 -17.884529 0.000000 0.000000 0.000000 -24.209193 2.377972 -6.400340 -50.539397 15.482965 -11.775249 -13.412174 -42.878016 5.881486 0.000000 0.000000 0.000000 20.727541 -3.912701 -2.002440 51.763266 -0.773104 -5.714028 49.821846 62.890836 36.865444 0.000000 0.000000 0.000000 
